<mxfile host="Electron" modified="2024-03-03T17:41:45.925Z" agent="Mozilla/5.0 (Windows NT 10.0; Win64; x64) AppleWebKit/537.36 (KHTML, like Gecko) draw.io/22.1.18 Chrome/120.0.6099.199 Electron/28.1.2 Safari/537.36" etag="HqASdg8a-tcdXEKPB1uD" version="22.1.18" type="device">
  <diagram name="Page-1" id="-5k9ssh1PsKzDlXD9x-G">
    <mxGraphModel dx="605" dy="1251" grid="1" gridSize="10" guides="1" tooltips="1" connect="1" arrows="1" fold="1" page="1" pageScale="1" pageWidth="850" pageHeight="1100" math="0" shadow="0">
      <root>
        <mxCell id="0" />
        <mxCell id="1" parent="0" />
        <mxCell id="wGs0QGNT79sH7qt1FUte-50" style="rounded=0;orthogonalLoop=1;jettySize=auto;html=1;exitX=0;exitY=1;exitDx=0;exitDy=0;entryX=0.5;entryY=0;entryDx=0;entryDy=0;endArrow=none;endFill=0;" parent="1" source="OWrJz08ZFz05rzJFqo_H-1" target="OWrJz08ZFz05rzJFqo_H-2" edge="1">
          <mxGeometry relative="1" as="geometry" />
        </mxCell>
        <mxCell id="wGs0QGNT79sH7qt1FUte-51" style="rounded=0;orthogonalLoop=1;jettySize=auto;html=1;exitX=1;exitY=1;exitDx=0;exitDy=0;entryX=0.5;entryY=0;entryDx=0;entryDy=0;endArrow=none;endFill=0;" parent="1" source="OWrJz08ZFz05rzJFqo_H-1" target="OWrJz08ZFz05rzJFqo_H-4" edge="1">
          <mxGeometry relative="1" as="geometry" />
        </mxCell>
        <mxCell id="OWrJz08ZFz05rzJFqo_H-1" value="&lt;font style=&quot;font-size: 24px;&quot;&gt;&lt;b&gt;A&lt;/b&gt;&lt;/font&gt;" style="ellipse;whiteSpace=wrap;html=1;aspect=fixed;" parent="1" vertex="1">
          <mxGeometry x="360" y="160" width="50" height="50" as="geometry" />
        </mxCell>
        <mxCell id="wGs0QGNT79sH7qt1FUte-52" style="rounded=0;orthogonalLoop=1;jettySize=auto;html=1;exitX=1;exitY=1;exitDx=0;exitDy=0;entryX=0;entryY=0;entryDx=0;entryDy=0;endArrow=none;endFill=0;" parent="1" source="OWrJz08ZFz05rzJFqo_H-2" target="wGs0QGNT79sH7qt1FUte-47" edge="1">
          <mxGeometry relative="1" as="geometry" />
        </mxCell>
        <mxCell id="wGs0QGNT79sH7qt1FUte-53" style="rounded=0;orthogonalLoop=1;jettySize=auto;html=1;exitX=0.5;exitY=1;exitDx=0;exitDy=0;entryX=0.5;entryY=0;entryDx=0;entryDy=0;endArrow=none;endFill=0;" parent="1" source="OWrJz08ZFz05rzJFqo_H-2" target="OWrJz08ZFz05rzJFqo_H-5" edge="1">
          <mxGeometry relative="1" as="geometry" />
        </mxCell>
        <mxCell id="OWrJz08ZFz05rzJFqo_H-2" value="&lt;font style=&quot;font-size: 24px;&quot;&gt;&lt;b&gt;B&lt;/b&gt;&lt;/font&gt;" style="ellipse;whiteSpace=wrap;html=1;aspect=fixed;" parent="1" vertex="1">
          <mxGeometry x="270" y="280" width="50" height="50" as="geometry" />
        </mxCell>
        <mxCell id="wGs0QGNT79sH7qt1FUte-54" style="rounded=0;orthogonalLoop=1;jettySize=auto;html=1;exitX=0.5;exitY=1;exitDx=0;exitDy=0;entryX=0.5;entryY=0;entryDx=0;entryDy=0;endArrow=none;endFill=0;" parent="1" source="OWrJz08ZFz05rzJFqo_H-4" target="wGs0QGNT79sH7qt1FUte-47" edge="1">
          <mxGeometry relative="1" as="geometry" />
        </mxCell>
        <mxCell id="OWrJz08ZFz05rzJFqo_H-4" value="&lt;font style=&quot;font-size: 24px;&quot;&gt;&lt;b&gt;C&lt;/b&gt;&lt;/font&gt;" style="ellipse;whiteSpace=wrap;html=1;aspect=fixed;" parent="1" vertex="1">
          <mxGeometry x="440" y="280" width="50" height="50" as="geometry" />
        </mxCell>
        <mxCell id="wGs0QGNT79sH7qt1FUte-55" style="rounded=0;orthogonalLoop=1;jettySize=auto;html=1;exitX=1;exitY=0.5;exitDx=0;exitDy=0;entryX=0;entryY=0.5;entryDx=0;entryDy=0;endArrow=none;endFill=0;" parent="1" source="OWrJz08ZFz05rzJFqo_H-5" target="wGs0QGNT79sH7qt1FUte-47" edge="1">
          <mxGeometry relative="1" as="geometry" />
        </mxCell>
        <mxCell id="wGs0QGNT79sH7qt1FUte-56" style="rounded=0;orthogonalLoop=1;jettySize=auto;html=1;exitX=0.5;exitY=1;exitDx=0;exitDy=0;entryX=0;entryY=0;entryDx=0;entryDy=0;endArrow=none;endFill=0;" parent="1" source="OWrJz08ZFz05rzJFqo_H-5" target="OWrJz08ZFz05rzJFqo_H-6" edge="1">
          <mxGeometry relative="1" as="geometry" />
        </mxCell>
        <mxCell id="OWrJz08ZFz05rzJFqo_H-5" value="&lt;font style=&quot;font-size: 24px;&quot;&gt;&lt;b&gt;D&lt;/b&gt;&lt;/font&gt;" style="ellipse;whiteSpace=wrap;html=1;aspect=fixed;" parent="1" vertex="1">
          <mxGeometry x="270" y="400" width="50" height="50" as="geometry" />
        </mxCell>
        <mxCell id="OWrJz08ZFz05rzJFqo_H-6" value="&lt;font style=&quot;font-size: 24px;&quot;&gt;&lt;b&gt;F&lt;/b&gt;&lt;/font&gt;" style="ellipse;whiteSpace=wrap;html=1;aspect=fixed;" parent="1" vertex="1">
          <mxGeometry x="360" y="510" width="50" height="50" as="geometry" />
        </mxCell>
        <mxCell id="wGs0QGNT79sH7qt1FUte-57" style="rounded=0;orthogonalLoop=1;jettySize=auto;html=1;exitX=0.5;exitY=1;exitDx=0;exitDy=0;entryX=1;entryY=0;entryDx=0;entryDy=0;endArrow=none;endFill=0;" parent="1" source="wGs0QGNT79sH7qt1FUte-47" target="OWrJz08ZFz05rzJFqo_H-6" edge="1">
          <mxGeometry relative="1" as="geometry" />
        </mxCell>
        <mxCell id="wGs0QGNT79sH7qt1FUte-47" value="&lt;font style=&quot;font-size: 24px;&quot;&gt;&lt;b&gt;E&lt;/b&gt;&lt;/font&gt;" style="ellipse;whiteSpace=wrap;html=1;aspect=fixed;" parent="1" vertex="1">
          <mxGeometry x="440" y="400" width="50" height="50" as="geometry" />
        </mxCell>
        <mxCell id="tiV_Bwaeu-nq42nMazTf-9" style="rounded=0;orthogonalLoop=1;jettySize=auto;html=1;exitX=1;exitY=0.5;exitDx=0;exitDy=0;entryX=0;entryY=1;entryDx=0;entryDy=0;endArrow=none;endFill=0;" edge="1" parent="1" source="tiV_Bwaeu-nq42nMazTf-1" target="tiV_Bwaeu-nq42nMazTf-5">
          <mxGeometry relative="1" as="geometry" />
        </mxCell>
        <mxCell id="tiV_Bwaeu-nq42nMazTf-1" value="&lt;font style=&quot;font-size: 24px;&quot;&gt;&lt;b&gt;D&lt;/b&gt;&lt;/font&gt;" style="ellipse;whiteSpace=wrap;html=1;aspect=fixed;" vertex="1" parent="1">
          <mxGeometry x="320" y="880" width="50" height="50" as="geometry" />
        </mxCell>
        <mxCell id="tiV_Bwaeu-nq42nMazTf-8" style="rounded=0;orthogonalLoop=1;jettySize=auto;html=1;exitX=1;exitY=0.5;exitDx=0;exitDy=0;entryX=0;entryY=0;entryDx=0;entryDy=0;endArrow=none;endFill=0;" edge="1" parent="1" source="tiV_Bwaeu-nq42nMazTf-2" target="tiV_Bwaeu-nq42nMazTf-5">
          <mxGeometry relative="1" as="geometry" />
        </mxCell>
        <mxCell id="tiV_Bwaeu-nq42nMazTf-2" value="&lt;font style=&quot;font-size: 24px;&quot;&gt;&lt;b&gt;B&lt;/b&gt;&lt;/font&gt;" style="ellipse;whiteSpace=wrap;html=1;aspect=fixed;" vertex="1" parent="1">
          <mxGeometry x="320" y="760" width="50" height="50" as="geometry" />
        </mxCell>
        <mxCell id="tiV_Bwaeu-nq42nMazTf-6" style="rounded=0;orthogonalLoop=1;jettySize=auto;html=1;exitX=1;exitY=0.5;exitDx=0;exitDy=0;entryX=0;entryY=0.5;entryDx=0;entryDy=0;endArrow=none;endFill=0;" edge="1" parent="1" source="tiV_Bwaeu-nq42nMazTf-3" target="tiV_Bwaeu-nq42nMazTf-2">
          <mxGeometry relative="1" as="geometry" />
        </mxCell>
        <mxCell id="tiV_Bwaeu-nq42nMazTf-10" style="rounded=0;orthogonalLoop=1;jettySize=auto;html=1;exitX=1;exitY=1;exitDx=0;exitDy=0;entryX=0.5;entryY=0;entryDx=0;entryDy=0;endArrow=none;endFill=0;" edge="1" parent="1" source="tiV_Bwaeu-nq42nMazTf-3" target="tiV_Bwaeu-nq42nMazTf-1">
          <mxGeometry relative="1" as="geometry" />
        </mxCell>
        <mxCell id="tiV_Bwaeu-nq42nMazTf-11" style="rounded=0;orthogonalLoop=1;jettySize=auto;html=1;exitX=0.5;exitY=1;exitDx=0;exitDy=0;entryX=0.5;entryY=0;entryDx=0;entryDy=0;endArrow=none;endFill=0;" edge="1" parent="1" source="tiV_Bwaeu-nq42nMazTf-3" target="tiV_Bwaeu-nq42nMazTf-4">
          <mxGeometry relative="1" as="geometry" />
        </mxCell>
        <mxCell id="tiV_Bwaeu-nq42nMazTf-3" value="&lt;font style=&quot;font-size: 24px;&quot;&gt;&lt;b&gt;A&lt;/b&gt;&lt;/font&gt;" style="ellipse;whiteSpace=wrap;html=1;aspect=fixed;" vertex="1" parent="1">
          <mxGeometry x="160" y="760" width="50" height="50" as="geometry" />
        </mxCell>
        <mxCell id="tiV_Bwaeu-nq42nMazTf-7" style="rounded=0;orthogonalLoop=1;jettySize=auto;html=1;exitX=1;exitY=0.5;exitDx=0;exitDy=0;entryX=0;entryY=0.5;entryDx=0;entryDy=0;endArrow=none;endFill=0;" edge="1" parent="1" source="tiV_Bwaeu-nq42nMazTf-4" target="tiV_Bwaeu-nq42nMazTf-1">
          <mxGeometry relative="1" as="geometry" />
        </mxCell>
        <mxCell id="tiV_Bwaeu-nq42nMazTf-4" value="&lt;font style=&quot;font-size: 24px;&quot;&gt;&lt;b&gt;C&lt;/b&gt;&lt;/font&gt;" style="ellipse;whiteSpace=wrap;html=1;aspect=fixed;" vertex="1" parent="1">
          <mxGeometry x="160" y="880" width="50" height="50" as="geometry" />
        </mxCell>
        <mxCell id="tiV_Bwaeu-nq42nMazTf-5" value="&lt;font style=&quot;font-size: 24px;&quot;&gt;&lt;b&gt;E&lt;/b&gt;&lt;/font&gt;" style="ellipse;whiteSpace=wrap;html=1;aspect=fixed;" vertex="1" parent="1">
          <mxGeometry x="460" y="820" width="50" height="50" as="geometry" />
        </mxCell>
      </root>
    </mxGraphModel>
  </diagram>
</mxfile>
